<svg width="72" height="36" viewBox="0 0 72 36" fill="none" xmlns="http://www.w3.org/2000/svg">
<rect x="0.805786" width="71.0936" height="35.5011" rx="5" fill="#10CD45"/>
<path d="M30.099 18.4285L28.867 15.0615C28.8064 14.9122 28.7434 14.7349 28.678 14.5295C28.6127 14.3242 28.5474 14.1025 28.482 13.8645C28.4214 14.1025 28.3584 14.3265 28.293 14.5365C28.2277 14.7419 28.1647 14.9215 28.104 15.0755L26.879 18.4285H30.099ZM33.424 22.2505H31.968C31.8047 22.2505 31.6717 22.2109 31.569 22.1315C31.4664 22.0475 31.3894 21.9449 31.338 21.8235L30.582 19.7585H26.389L25.633 21.8235C25.5957 21.9309 25.5234 22.0289 25.416 22.1175C25.3087 22.2062 25.1757 22.2505 25.017 22.2505H23.547L27.53 12.1285H29.448L33.424 22.2505ZM38.5563 16.9025C38.3603 16.6645 38.1457 16.4965 37.9123 16.3985C37.6837 16.3005 37.4363 16.2515 37.1703 16.2515C36.909 16.2515 36.6733 16.3005 36.4633 16.3985C36.2533 16.4965 36.0737 16.6459 35.9243 16.8465C35.775 17.0425 35.6607 17.2945 35.5813 17.6025C35.502 17.9059 35.4623 18.2652 35.4623 18.6805C35.4623 19.1005 35.495 19.4575 35.5603 19.7515C35.6303 20.0409 35.7283 20.2789 35.8543 20.4655C35.9803 20.6475 36.1343 20.7805 36.3163 20.8645C36.4983 20.9439 36.7013 20.9835 36.9253 20.9835C37.2847 20.9835 37.5903 20.9089 37.8423 20.7595C38.0943 20.6102 38.3323 20.3979 38.5563 20.1225V16.9025ZM40.2853 11.8485V22.2505H39.2283C38.9997 22.2505 38.855 22.1455 38.7943 21.9355L38.6473 21.2425C38.358 21.5739 38.0243 21.8422 37.6463 22.0475C37.273 22.2529 36.8367 22.3555 36.3373 22.3555C35.9453 22.3555 35.586 22.2739 35.2593 22.1105C34.9327 21.9472 34.6503 21.7115 34.4123 21.4035C34.179 21.0909 33.997 20.7059 33.8663 20.2485C33.7403 19.7912 33.6773 19.2685 33.6773 18.6805C33.6773 18.1485 33.7497 17.6539 33.8943 17.1965C34.039 16.7392 34.2467 16.3425 34.5173 16.0065C34.788 15.6705 35.1123 15.4092 35.4903 15.2225C35.8683 15.0312 36.293 14.9355 36.7643 14.9355C37.1657 14.9355 37.5087 14.9985 37.7933 15.1245C38.078 15.2505 38.3323 15.4209 38.5563 15.6355V11.8485H40.2853ZM46.4997 16.9025C46.3037 16.6645 46.089 16.4965 45.8557 16.3985C45.627 16.3005 45.3797 16.2515 45.1137 16.2515C44.8524 16.2515 44.6167 16.3005 44.4067 16.3985C44.1967 16.4965 44.017 16.6459 43.8677 16.8465C43.7184 17.0425 43.604 17.2945 43.5247 17.6025C43.4454 17.9059 43.4057 18.2652 43.4057 18.6805C43.4057 19.1005 43.4384 19.4575 43.5037 19.7515C43.5737 20.0409 43.6717 20.2789 43.7977 20.4655C43.9237 20.6475 44.0777 20.7805 44.2597 20.8645C44.4417 20.9439 44.6447 20.9835 44.8687 20.9835C45.228 20.9835 45.5337 20.9089 45.7857 20.7595C46.0377 20.6102 46.2757 20.3979 46.4997 20.1225V16.9025ZM48.2287 11.8485V22.2505H47.1717C46.943 22.2505 46.7984 22.1455 46.7377 21.9355L46.5907 21.2425C46.3014 21.5739 45.9677 21.8422 45.5897 22.0475C45.2164 22.2529 44.78 22.3555 44.2807 22.3555C43.8887 22.3555 43.5294 22.2739 43.2027 22.1105C42.876 21.9472 42.5937 21.7115 42.3557 21.4035C42.1224 21.0909 41.9404 20.7059 41.8097 20.2485C41.6837 19.7912 41.6207 19.2685 41.6207 18.6805C41.6207 18.1485 41.693 17.6539 41.8377 17.1965C41.9824 16.7392 42.19 16.3425 42.4607 16.0065C42.7314 15.6705 43.0557 15.4092 43.4337 15.2225C43.8117 15.0312 44.2364 14.9355 44.7077 14.9355C45.109 14.9355 45.452 14.9985 45.7367 15.1245C46.0214 15.2505 46.2757 15.4209 46.4997 15.6355V11.8485H48.2287Z" fill="white"/>
</svg>
